<svg xmlns="http://www.w3.org/2000/svg" width="128.91" height="196.12" viewBox="0 0 128.91 196.12">
  <defs>
    <style>
      .cls-1 {
        fill: #a7a8a8;
      }

      .cls-2 {
        opacity: 0.28;
      }
    </style>
  </defs>
  <g id="Layer_2" data-name="Layer 2">
    <path class="cls-1" d="M106.62,84.11l-.25,6.35q-.14,3.15-.33,6.3l-.87,12.66c-.24,3.59-.47,7.19-.6,10.83l-4.6.1c-16.87.26-33.82.07-50.74-.2L41,120l-1.59,0h-.6c-.08,0,0,.1,0,.15l.06.75c.08,1,.13,2,.27,3,.06.51.15,1,.23,1.55l.14.78.09.48c.12.56.25,1.11.39,1.66a31,31,0,0,0,6,12.38,22.11,22.11,0,0,0,5.51,4.66,20.71,20.71,0,0,0,6.79,2.47c.59.08,1.18.21,1.76.25s1.21.1,1.75.13l3.17.14,6.35.27,12,.52h0l-.82,1.54c-.5,1-1,1.94-1.46,2.91a103.72,103.72,0,0,0-4.93,12.06c-.35,1-.68,2.08-1,3.12-.17.52-.3,1.05-.45,1.58l-.34,1.23-.06.25c-.33,1.29-.62,2.6-.9,3.92,0,0-.07.55-.18,1.44s-.23,2.12-.33,3.47a58.7,58.7,0,0,0-.08,6.59c.07,1,.12,1.76.18,2.3s.12.81.13.71a23.6,23.6,0,0,0,.86,3.89,4.76,4.76,0,0,0,1,1.92c.29.2.51-.08.66-1s.2-2.44.39-4.75a76.47,76.47,0,0,1,1.44-9.08c.5-2.29.93-3.83.93-3.83.24-1.28.52-2.55.84-3.82l.12-.48.06-.24,0-.18.11-.39.21-.77c.14-.52.29-1,.45-1.54.3-1,.64-2.05,1-3.07a101,101,0,0,1,5-11.92c.47-1,1-1.93,1.48-2.87l.5-.93.82-1.44c.56-1,1.16-1.93,1.79-2.93l.94-1.48.47-.74.11-.18c0-.06.12-.15,0-.12l-.41,0-3.3-.14-5.8-.26-13.26-.57L62.86,143c-.56,0-1.12,0-1.58-.09a13.69,13.69,0,0,1-1.45-.15,13.19,13.19,0,0,1-1.42-.27l-.7-.17-.68-.22a16.09,16.09,0,0,1-8.69-7.1,26.4,26.4,0,0,1-2.56-5.45c-.33-1-.61-2-.85-3-.07-.24-.12-.5-.17-.75l-.12-.58h0s0,0,0,0l2.18,0,6.64.11,13.28.16q13.29.14,26.58.06c3.72,0,7.44-.11,11.13-.19a79.55,79.55,0,0,0,.51,9.83,38.57,38.57,0,0,0,1.35,6.66c.17.55.33,1.11.55,1.66l.32.82.36.82c.23.55.53,1.08.81,1.62s.59,1,.92,1.51a19.16,19.16,0,0,0,2.29,2.88,11.51,11.51,0,0,0,3.28,2.42,7.79,7.79,0,0,0,4.7.66,8,8,0,0,0,4.07-2.23,15.91,15.91,0,0,0,3.71-6.59,35.18,35.18,0,0,0,1.31-6.74c.12-1.12.19-2.23.23-3.34s.06-2.18,0-3.38a19.47,19.47,0,0,0-.48-3.67,9.92,9.92,0,0,0-1.78-3.83,9.22,9.22,0,0,0-3.44-2.7,15.63,15.63,0,0,0-3.66-1.13,42.15,42.15,0,0,0-6.76-.55h-3c.1-2.71.26-5.44.43-8.17l.92-13.24c.14-2.22.27-4.44.37-6.67l.27-6.64c.38-8.8.91-17.64,1.24-26.51.34-9.08.53-18.19.07-27.36a107.09,107.09,0,0,0-1.5-13.82,47.76,47.76,0,0,0-1.77-6.94A22.19,22.19,0,0,0,106.23,4a11.52,11.52,0,0,0-3.32-2.79A10,10,0,0,0,98.54,0,9.83,9.83,0,0,0,94.1.8a12,12,0,0,0-3.57,2.36,22.24,22.24,0,0,0-4.46,6.22A47.06,47.06,0,0,0,83.37,16a94.76,94.76,0,0,0-3.19,13.58c-.76,4.54-1.29,9.11-1.68,13.67-.49,5.86-.73,11.73-.78,17.6a24.69,24.69,0,0,0-6.82.37,29.54,29.54,0,0,0-7.05,2.36,34.67,34.67,0,0,0-10.71,8.15A23.86,23.86,0,0,0,49,70.43a30.8,30.8,0,0,0-7.39-.65l-1.82.1c-.61,0-1.25.15-1.88.22s-1.24.25-1.86.37-1.22.34-1.83.51a25.35,25.35,0,0,0-2.81,1.13c-.33-6-.86-12.06-1.64-18.08a134,134,0,0,0-2.4-13.62,64.47,64.47,0,0,0-2-6.8A32.57,32.57,0,0,0,24,30.22a17.27,17.27,0,0,0-2.13-3.39,9.76,9.76,0,0,0-1.7-1.61,6.42,6.42,0,0,0-2.55-1.14,6,6,0,0,0-2.95.17,8,8,0,0,0-1,.41l-.88.4a18.46,18.46,0,0,0-6.18,4.81,22.92,22.92,0,0,0-3.76,6.62,37.68,37.68,0,0,0-1.84,7,83.64,83.64,0,0,0-.94,14c0,4.61.25,9.18.55,13.72C1.16,80.29,2,89.3,2.82,98.3c.39,4.5.76,9,1.11,13.5a107,107,0,0,0,2,13.76,80.9,80.9,0,0,0,10.16,26,69.78,69.78,0,0,0,4,5.8,65.1,65.1,0,0,0,4.64,5.33L26,163.92l1.29,1.21.66.59.21.18a48.82,48.82,0,0,0,7.06,5.19,1.84,1.84,0,0,0,.49,0c1.86-.24,2.56-1.11,2.71-2a3.73,3.73,0,0,0-.33-2.3c-.07-.19-.1-.21-.2-.27A42.29,42.29,0,0,1,31.57,162l-.19-.16-.6-.53-1.18-1.11L28.46,159a60.29,60.29,0,0,1-4.26-4.9q-2-2.58-3.71-5.34A75.59,75.59,0,0,1,11,124.47,104.12,104.12,0,0,1,9.13,111.4c-.34-4.52-.72-9-1.11-13.55-.78-9-1.65-18-2.26-27-.29-4.48-.51-9-.54-13.39A79.38,79.38,0,0,1,6.09,44.4c.71-4.2,2-8.25,4.46-11.18A13.18,13.18,0,0,1,15,29.76l.66-.3a3.78,3.78,0,0,1,.53-.22.75.75,0,0,1,.4,0,2.63,2.63,0,0,1,1.25,1,11.83,11.83,0,0,1,1.46,2.35,28.31,28.31,0,0,1,1.19,2.85,56.69,56.69,0,0,1,1.8,6.23A131.61,131.61,0,0,1,24.59,54.7c.88,6.79,1.43,13.65,1.74,20.51a26.72,26.72,0,0,0-8.24,10.62,24,24,0,0,0-1.84,7.36,20.66,20.66,0,0,0,.77,7.65,21.55,21.55,0,0,0,3.47,6.84c.19.26.37.52.58.76l.83,1a10.76,10.76,0,0,0,1.17,1.17l1.18.76,1.19.76a2.24,2.24,0,0,0,1.22.07,3.54,3.54,0,0,0,2.16-1.34,7.82,7.82,0,0,0,1.3-2.77c.08-.27.16-.53.22-.81l.09-.41.08-.36.18-.9c.21-1.2.36-2.37.49-3.54.24-2.33.39-4.63.49-6.93.19-4.6.19-9.17.1-13.74,0-1.16-.07-2.33-.11-3.49A20.31,20.31,0,0,1,35.82,76l1.44-.41c.48-.09,1-.21,1.46-.28s1-.15,1.49-.17l1.56-.1a23.59,23.59,0,0,1,8.08,1.11,30.34,30.34,0,0,0-4.1,9.56,35.9,35.9,0,0,0-.87,7.26,36.32,36.32,0,0,0,.57,7.27,26.18,26.18,0,0,0,.89,3.62,18.06,18.06,0,0,0,1.54,3.6,10.68,10.68,0,0,0,2.89,3.41l.52.36c.19.11.4.21.6.31a4.91,4.91,0,0,0,.62.28l.68.2a6.65,6.65,0,0,0,1.41.19,9.07,9.07,0,0,0,1.38-.11,9.28,9.28,0,0,0,4.15-2.13,18,18,0,0,0,6-10,25.67,25.67,0,0,0,.66-7.49,27.27,27.27,0,0,0-1.43-7.35,23.79,23.79,0,0,0-3.59-6.69,21.43,21.43,0,0,0-4-4,31,31,0,0,1,3.1-2.85,29.6,29.6,0,0,1,5.25-3.29A21.81,21.81,0,0,1,77.75,66.1c0,1.53,0,3.06.1,4.59.15,4.57.43,9.14.89,13.71a109.43,109.43,0,0,0,2.15,13.74,34,34,0,0,0,2.32,7A12.81,12.81,0,0,0,84.29,107l.36.47.21.24c.1.11.19.21.3.31a5.87,5.87,0,0,0,1.33,1,4.51,4.51,0,0,0,3.2.43,5.91,5.91,0,0,0,1.5-.62l.88-.49c.58-.32,1.1-.75,1.65-1.13s1-.88,1.52-1.32.92-1,1.34-1.52a16.74,16.74,0,0,0,1.13-1.66,19.78,19.78,0,0,0,2.53-7.33,32.65,32.65,0,0,0-1.53-14.56,41.88,41.88,0,0,0-2.83-6.66A33.82,33.82,0,0,0,91.76,68a21.14,21.14,0,0,0-5.92-4.94A18,18,0,0,0,84,62.28L83.1,62l-.16-.05q0-9.1.76-18.18c.37-4.45.89-8.88,1.62-13.25a88.91,88.91,0,0,1,3-12.82,41.57,41.57,0,0,1,2.39-5.9A17.15,17.15,0,0,1,94.08,7a5.61,5.61,0,0,1,4.21-1.75,5.28,5.28,0,0,1,3.93,2.14,17.27,17.27,0,0,1,2.67,5.17,44.71,44.71,0,0,1,1.58,6.18,101.55,101.55,0,0,1,1.41,13.14c.45,8.9.27,17.89-.06,26.89C107.5,67.17,107,75.62,106.62,84.11ZM26.45,94.86c-.09,2.22-.23,4.44-.46,6.6-.12,1.08-.26,2.15-.44,3.18l-.16.82,0,0-.25-.28c-.16-.19-.3-.4-.45-.59A16.58,16.58,0,0,1,22,99.37a17,17,0,0,1,.86-11.5,20.94,20.94,0,0,1,3.67-5.74C26.64,86.38,26.63,90.64,26.45,94.86ZM61,98.72a13.71,13.71,0,0,1-2.31,5.14,14.16,14.16,0,0,1-1.93,2,4.23,4.23,0,0,1-1.78,1,1.44,1.44,0,0,1-1.17-.32,5.43,5.43,0,0,1-1.42-1.76,13,13,0,0,1-1.11-2.62,21.69,21.69,0,0,1-.73-3A30.86,30.86,0,0,1,50.1,93a29.59,29.59,0,0,1,.74-6.18,25.25,25.25,0,0,1,3.65-8.33,17.53,17.53,0,0,1,5.92,8.31A21.54,21.54,0,0,1,61,98.72Zm22.37-31a16.45,16.45,0,0,1,4.41,3.73,32.44,32.44,0,0,1,5.94,10.94,27.53,27.53,0,0,1,1.33,12.19c-.56,3.93-2.45,7.39-5.7,9.25l-.6.33,0,0h0l-.07-.07-.15-.2a7.68,7.68,0,0,1-.63-1.09A29.29,29.29,0,0,1,86,96.94a103.29,103.29,0,0,1-2-13.06c-.45-4.43-.72-8.89-.87-13.36,0-1-.06-2-.08-3Zm29.75,57.69c1.06,0,2.12.07,3.14.16a21.1,21.1,0,0,1,2.92.43,7.89,7.89,0,0,1,2.3.87,3.44,3.44,0,0,1,1.33,1.4,11.5,11.5,0,0,1,.86,5.22,46,46,0,0,1-.42,6.25,23.63,23.63,0,0,1-1.49,5.76,10,10,0,0,1-1.29,2.31,4,4,0,0,1-1.5,1.28,1.93,1.93,0,0,1-1.46.06A4.91,4.91,0,0,1,115.7,148a12.56,12.56,0,0,1-1.77-2.07,19.09,19.09,0,0,1-1.48-2.48,25.23,25.23,0,0,1-1.81-5.69,63.87,63.87,0,0,1-1-12.39C110.84,125.37,112,125.37,113.15,125.4Z"/>
  </g>
</svg>
