<svg xmlns="http://www.w3.org/2000/svg" width="226.43" height="128.73" viewBox="0 0 226.43 128.73">
  <defs>
    <style>
      .cls-1 {
        fill: #a7a8a8;
      }

      .cls-2 {
        opacity: 0.28;
      }
    </style>
  </defs>
  <g id="Layer_2" data-name="Layer 2">
    <path class="cls-1" d="M47.6,70.2a46.85,46.85,0,0,1,3.52,3.67A87.43,87.43,0,0,1,57.33,82c1,1.41,1.89,2.83,2.79,4.27l.26.43.23.37c2.41,3.91,3.88,6.66,4,6.8a1.45,1.45,0,0,0,.38.25c1.63.65,2.67.42,3.32-.16a3.29,3.29,0,0,0,.94-2.23.4.4,0,0,0,0-.36c-.09-.16-1.59-3-4-7-.64-1-1.29-2-2-3.08-1.92-2.93-4-5.83-6.21-8.65-1.15-1.4-2.32-2.79-3.6-4.14s-2.63-2.6-4-3.83C44,59.9,38.24,55.43,32.46,50.9l-8.71-6.83c-2.9-2.3-5.82-4.62-8.6-7-.7-.6-1.34-1.22-2-1.83-.32-.3-.61-.61-.92-.92s-.61-.61-.91-1a41.32,41.32,0,0,1-3.37-4.2,18.44,18.44,0,0,1-2.35-4.39c-.11-.35-.2-.7-.28-1a4.48,4.48,0,0,1-.07-.94,2.59,2.59,0,0,1,.37-1.45,5.41,5.41,0,0,1,3.11-2.07A11.84,11.84,0,0,1,13.46,19a32.46,32.46,0,0,1,10.21,3.57A91.41,91.41,0,0,1,42.37,36.3l8.93,8.24c1.53,1.38,3.05,2.76,4.72,4.11a32,32,0,0,0,2.67,2A12.58,12.58,0,0,0,62.2,52.3a9.2,9.2,0,0,0,4.23.07l.48-.1.56-.17a7.66,7.66,0,0,0,1-.42,11.4,11.4,0,0,0,1.74-1.08,17.82,17.82,0,0,0,2.61-2.5,29.39,29.39,0,0,0,2.07-2.66,91.83,91.83,0,0,0,6.38-11.09c1.9-3.75,3.68-7.53,5.55-11.2.94-1.84,1.89-3.6,3-5.3a36.57,36.57,0,0,1,3.45-4.75,13.9,13.9,0,0,1,4-3.33,4.57,4.57,0,0,1,1.93-.5,3.48,3.48,0,0,1,1.74.49,6.41,6.41,0,0,1,1.72,1.46l.31.38-.77.52A27.3,27.3,0,0,0,96.94,17l-.58.68c-.19.24-.36.48-.54.72l-1,1.46c-.61,1-1.28,2-1.79,3.09a34.12,34.12,0,0,0-3.77,13.63,29.89,29.89,0,0,0,.46,7.18,22.85,22.85,0,0,0,2.46,7A11.15,11.15,0,0,0,94.88,54a7.37,7.37,0,0,0,2.34,1.19,6.3,6.3,0,0,0,2.83.09A8.51,8.51,0,0,0,104.12,53a18.08,18.08,0,0,0,2.4-3,39.42,39.42,0,0,0,3.17-6.24,53.58,53.58,0,0,0,2.17-6.52A38.48,38.48,0,0,0,113,23.45a34.38,34.38,0,0,0-1.51-6.85c-.34-1-.73-1.94-1.16-2.89a24.83,24.83,0,0,1,5.28-1.54,10.85,10.85,0,0,1,5.2.39,11.61,11.61,0,0,1,5.16,3.92,35.65,35.65,0,0,0-8.23,10.66,72.59,72.59,0,0,0-5,12.68,49.92,49.92,0,0,0-1.62,6.72,26.74,26.74,0,0,0-.32,7.31,13.86,13.86,0,0,0,1.06,3.94,9,9,0,0,0,2.83,3.58A8.83,8.83,0,0,0,119,63a11.65,11.65,0,0,0,4.2-.34A15.85,15.85,0,0,0,130,58.86a12.36,12.36,0,0,0,1.37-1.51c.23-.29.39-.52.56-.77l.5-.73a34.49,34.49,0,0,0,1.83-3A35.56,35.56,0,0,0,137,46.22a36,36,0,0,0,1.29-7.06,35.61,35.61,0,0,0-2-14l-.59-1.66c-.2-.55-.46-1.08-.69-1.62l-.71-1.6-.8-1.56c-.12-.23-.25-.46-.38-.69a14,14,0,0,1,4.54-1.16,13.6,13.6,0,0,1,5.28.72,10,10,0,0,1,4.25,2.66A22,22,0,0,1,150.18,25c.27.61.54,1.23.79,1.85a12.71,12.71,0,0,0-3,1.72,18.53,18.53,0,0,0-4.54,5.66,33.39,33.39,0,0,0-1.47,3.09c-.38,1-.82,2.08-1.13,3.14L140.3,42l-.42,1.58c-.13.55-.28,1-.41,1.62s-.23,1.15-.32,1.73a35.34,35.34,0,0,0-.33,6.81,27.5,27.5,0,0,0,1.11,6.89,15,15,0,0,0,1.56,3.51,8.52,8.52,0,0,0,3.29,3.13,6.37,6.37,0,0,0,2.57.69,6.65,6.65,0,0,0,2.56-.4,10,10,0,0,0,3.58-2.35,20.72,20.72,0,0,0,4.1-6,26.16,26.16,0,0,0,1.28-3.32c.17-.58.33-1.15.46-1.75.07-.29.13-.59.19-.89s.08-.58.12-.87l.23-1.71c.07-.57.09-1.14.13-1.71.1-1.15.08-2.28.09-3.42a57,57,0,0,0-1.74-12.77,13.16,13.16,0,0,1,1.24,1.33,18.6,18.6,0,0,1,2.55,4.6c.37.83.61,1.73.91,2.6s.51,1.79.68,2.73l.28,1.38c.09.46.15.93.22,1.4l.22,1.41.19,1.49c.26,2,.53,4,.9,6,.19,1,.41,2,.7,3.1a15.48,15.48,0,0,0,1.25,3.31,8.17,8.17,0,0,0,1.3,1.8c.16.15.32.3.49.44s.4.29.6.42a5.07,5.07,0,0,0,2.8.73,6.17,6.17,0,0,0,1.29-.18,7.86,7.86,0,0,0,2-.79,19.42,19.42,0,0,0,5.08-4.5l1-1.21.91-1.23c.62-.82,1.15-1.66,1.73-2.49,2.2-3.33,4.12-6.73,6-10.11,3.7-6.76,7.07-13.51,10.77-19.82a81.28,81.28,0,0,1,6-8.94A40.67,40.67,0,0,1,214.56,9a25.37,25.37,0,0,1,4.14-2.6l.26-.14.08.17a19.12,19.12,0,0,1,1.54,4.44c.21.76.29,1.56.44,2.34s.18,1.59.18,2.39a34.42,34.42,0,0,1-1.11,9.57c-.22.78-.41,1.56-.65,2.34l-.78,2.37c-.56,1.56-1.11,3.11-1.75,4.63s-1.28,3-1.94,4.52-1.39,3-2.16,4.38c-1.47,2.88-3.09,5.65-4.77,8.35s-3.49,5.26-5.33,7.76-3.8,4.88-5.84,7.13-4.1,4.4-6.25,6.44-4.38,4-6.62,5.88c-4.47,3.79-9,7.38-13.28,11.11a136.59,136.59,0,0,0-11.91,11.6c-.88,1-1.81,2-2.63,3l-1.9,2.33-.22.26c-.13.17-.27.33-.4.49-.25.32-.46.62-.67.89l-1.26,1.7-1.27,2-2.58,4.36c-1.74,3.21-3.38,6.36-3.15,6.13-2.37,5.5-3.15,9.26,2.41,1.62.86-1.09,1.81-2.3,2.76-3.49l1.36-1.78,1.34-1.62,2.06-2.56.86-1,1.22-1.65c.4-.51.85-1.17,1.44-1.86l.63-.78c1.68-2.12,3.49-4.16,5.38-6.2a141.07,141.07,0,0,1,12.58-11.76c4.54-3.83,9.39-7.67,14.18-11.92,1.2-1.06,2.37-2.17,3.57-3.26l1.76-1.72c.59-.57,1.17-1.16,1.73-1.77,2.32-2.36,4.47-4.91,6.6-7.52A120.92,120.92,0,0,0,216,48.41a107.65,107.65,0,0,0,8.48-19.68,43,43,0,0,0,1.92-11.27c0-1,0-2-.06-2.94s-.15-2-.34-2.95a26.62,26.62,0,0,0-1.58-5.84c-.19-.47-.41-.94-.62-1.41l-.45-.89c-.21-.41-.46-.78-.7-1.16A23.89,23.89,0,0,0,221.13.16c-.1-.28-.33-.13-.54,0L220,.34l-1.25.45-1.25.46-.63.23a1.76,1.76,0,0,0-.39.19l-1.35.72-.68.36-.63.42L212.51,4a42.52,42.52,0,0,0-8.61,8.27c-5,6.17-8.64,13.09-12.32,19.93-1.83,3.43-3.62,6.88-5.49,10.29s-3.79,6.8-5.92,10A51.21,51.21,0,0,1,176.8,57a13.18,13.18,0,0,1-3.66,3.14,1.73,1.73,0,0,1-.57.18h0a1.36,1.36,0,0,1-.23-.27,4.45,4.45,0,0,1-.46-.84A25.15,25.15,0,0,1,170.52,54c-1.27-7.47-1.32-17-8-24.38a13.9,13.9,0,0,0-3-2.37,9.61,9.61,0,0,0-3.24-1.1c-.06-.14-.11-.28-.16-.42a37.49,37.49,0,0,0-3-6.26c-.29-.52-.68-1-1-1.53s-.82-1-1.23-1.51A14,14,0,0,0,147.66,14,18.42,18.42,0,0,0,133,12.48a21.39,21.39,0,0,0-2.65,1.1c-.24-.3-.47-.6-.72-.89A17.35,17.35,0,0,0,123.44,8a15.47,15.47,0,0,0-7.75-1.1,26.81,26.81,0,0,0-7.07,1.83c-.32.12-.62.26-.93.39a19.2,19.2,0,0,0-1.52-1.87,10.82,10.82,0,0,0-3.4-2.46,9.19,9.19,0,0,0-2.18-.66,8.94,8.94,0,0,0-2.31,0,10.59,10.59,0,0,0-4,1.36,20.75,20.75,0,0,0-5.46,4.83,45.11,45.11,0,0,0-3.89,5.54C82.64,19.68,80.86,23.53,79,27.3s-3.7,7.51-5.73,11a48.6,48.6,0,0,1-3.23,5A13.12,13.12,0,0,1,66.4,46.9c-.15.09-.28.12-.41.2l-.37.11-.57.11-.5,0a3.68,3.68,0,0,1-1.8-.42,11.52,11.52,0,0,1-1.06-.58c-.37-.26-.74-.5-1.12-.78-.75-.56-1.51-1.19-2.27-1.83-3-2.61-6-5.43-9-8.19L44.74,31.4c-1.55-1.38-3.11-2.73-4.72-4a91.24,91.24,0,0,0-10.1-7.22,50.35,50.35,0,0,0-11.4-5.33A25.57,25.57,0,0,0,12,13.67a14.45,14.45,0,0,0-7,1.42l-.83.47-.79.56a9.07,9.07,0,0,0-1.49,1.37,6.2,6.2,0,0,0-.64.86,4.91,4.91,0,0,0-.53.95c-.15.34-.29.68-.41,1s-.16.7-.23,1.06c0,.17-.07.35-.09.52l0,.51c0,.34,0,.69,0,1A12.16,12.16,0,0,0,.32,25.3l.23.88c.09.28.2.54.3.82a14.47,14.47,0,0,0,.67,1.55,31.19,31.19,0,0,0,3.42,5.31c.62.82,1.27,1.58,1.92,2.34l1,1.12L9,38.43c1.46,1.44,2.93,2.7,4.41,4s3,2.46,4.44,3.64c3,2.37,5.92,4.68,8.85,7,5.86,4.58,11.63,9.07,17,13.69C45,67.85,46.35,69,47.6,70.2ZM154.81,48.45l-.1,1.47-.19,1.44a14.67,14.67,0,0,1-.56,2.73,20.61,20.61,0,0,1-2.26,5.07,14.3,14.3,0,0,1-1.58,2.09,6.14,6.14,0,0,1-1.7,1.33,1.42,1.42,0,0,1-1.1.16,2.11,2.11,0,0,1-.55-.31,4.21,4.21,0,0,1-.61-.64,12,12,0,0,1-1.74-4.68,27.82,27.82,0,0,1-.42-5.65,25.26,25.26,0,0,1,.67-5.56,51.85,51.85,0,0,1,1.7-5.59,23.69,23.69,0,0,1,2.44-5A9.62,9.62,0,0,1,152.2,32l.49-.23c.46,1.56.85,3.15,1.16,4.74A46.92,46.92,0,0,1,154.81,48.45ZM133.14,37.62a26,26,0,0,1-.8,5.89c-.22,1-.55,1.91-.86,2.86s-.73,1.85-1.18,2.75c-.2.46-.44.89-.68,1.33s-.48.88-.76,1.31-.51.86-.81,1.27l-.43.62-.21.31-.19.24a10.43,10.43,0,0,1-4.12,3,6.74,6.74,0,0,1-4.51.42,3.29,3.29,0,0,1-1.46-1,5.14,5.14,0,0,1-.93-2,15.15,15.15,0,0,1-.25-5.48,38.6,38.6,0,0,1,1.17-6c.56-2,1.19-4,1.89-6,.32-1,.74-1.94,1.11-2.92s.82-1.89,1.24-2.83a43.51,43.51,0,0,1,3-5.32,29.26,29.26,0,0,1,3.7-4.59c.26-.25.52-.48.78-.72a37.82,37.82,0,0,1,3.87,10.79,12.47,12.47,0,0,1,.23,1.49c.05.49.13,1,.17,1.49A29.64,29.64,0,0,1,133.14,37.62ZM107.8,30.3a41.13,41.13,0,0,1-3,11.63,33.22,33.22,0,0,1-2.7,5.29,13.14,13.14,0,0,1-1.64,2.05A3.49,3.49,0,0,1,99,50.2a1.26,1.26,0,0,1-.39,0,2.21,2.21,0,0,1-.55-.3,5.8,5.8,0,0,1-1.38-1.7,17.78,17.78,0,0,1-1.87-5.27,26,26,0,0,1,.53-11.65c.22-1,.6-1.89.9-2.84s.73-1.85,1.21-2.72a26.93,26.93,0,0,1,3.2-5,25.19,25.19,0,0,1,4.19-4.07l.83-.55c.37.84.69,1.71,1,2.59a28.16,28.16,0,0,1,1.18,5.7A31.44,31.44,0,0,1,107.8,30.3Z"/>
  </g>
</svg>
