<svg xmlns="http://www.w3.org/2000/svg" width="105.98" height="191.27" viewBox="0 0 105.98 191.27">
  <defs>
    <style>
      .cls-1 {
        fill: #a7a8a8;
      }

      .cls-2 {
        opacity: 0.28;
      }
    </style>
  </defs>
  <g id="Layer_2" data-name="Layer 2">
    <path class="cls-1" d="M3.88,98.85c-.55,6.23-1.23,12.36-2,18.36q-.36,2.75-.72,5.39C.52,127.2,0,130.31,0,130.48a1.14,1.14,0,0,0,.15.43c1.78,3.05,3.92,1.75,4.83.7a.41.41,0,0,0,.18-.32c0-.17.53-3.28,1.16-7.87.15-1,.29-2.12.44-3.21.79-6,1.51-12.08,2.09-18.3s1.06-12.56,1.31-19c.07-1.62.13-3.24.14-4.87s.07-3.27,0-4.92c0-3.32-.13-6.58-.25-9.89-.24-6.6-.57-13.3-1.08-20.07S7.76,29.51,7,22.65c-.43-3.56-1.12-7-1.45-10.25a18.94,18.94,0,0,1,0-4.57A4.92,4.92,0,0,1,6,6.24a1.65,1.65,0,0,1,.75-.73,6.56,6.56,0,0,1,3.59-.09,26.92,26.92,0,0,1,4.6,1.37A19.19,19.19,0,0,1,22.6,12.1a26,26,0,0,1,4.76,8.46,54.57,54.57,0,0,1,2.37,10.07c.52,3.48.86,7.07,1.12,10.67a104,104,0,0,0,1.23,11.21,30,30,0,0,0,4.23,11.27,20.32,20.32,0,0,0,4.31,4.67,20.89,20.89,0,0,0,5.53,3.07,26.66,26.66,0,0,0,3,.93c.5.12,1,.21,1.5.31a13.08,13.08,0,0,0,1.5.26l1.5.19c.5.05,1,.07,1.49.1a29.53,29.53,0,0,0,3,.08A54.22,54.22,0,0,0,63.93,73c1-.08,1.92-.24,2.88-.37l2.79-.41,2.71-.39,2.7-.27,1.36-.12,1.34,0c.9,0,1.81-.12,2.69-.06A26.33,26.33,0,0,1,90.46,73a11.19,11.19,0,0,1,3.86,2.52,10.38,10.38,0,0,1,1.42,1.74l.56,1c.18.34.3.73.46,1.08a8.64,8.64,0,0,1,.39,1.15l.18.58c0,.2.08.41.13.61a15,15,0,0,1,.34,2.34A9.4,9.4,0,0,1,97,88.42l0,0c-.15-.12-.3-.25-.45-.36A33.38,33.38,0,0,0,85.3,82.74a23.22,23.22,0,0,0-3.16-.61c-1-.13-2-.2-3-.25-2-.11-3.94-.14-5.9-.14q-5.86,0-11.72.53A76.17,76.17,0,0,0,49.7,84.13a24.81,24.81,0,0,0-6.05,2.26,8.92,8.92,0,0,0-3,2.67,5.58,5.58,0,0,0-.6,5.08,9.52,9.52,0,0,0,2.21,3.3,15,15,0,0,0,1.32,1.18c.45.39.92.66,1.38,1a29.28,29.28,0,0,0,5.76,2.73,57.61,57.61,0,0,0,24,2.45,56.49,56.49,0,0,0,11.84-2.43,29.76,29.76,0,0,0,10.9-6,11.15,11.15,0,0,1,1,1.71,8.23,8.23,0,0,1,.66,4.16,9.64,9.64,0,0,1-.49,2.13,13.21,13.21,0,0,1-1,2.09,16,16,0,0,1-2.87,3.59h0c-.91-.32-1.8-.7-2.72-1a40.92,40.92,0,0,0-5.54-1.32,54.37,54.37,0,0,0-11.25-.7,71.73,71.73,0,0,0-11.19,1.38,41.7,41.7,0,0,0-11,3.63,18.85,18.85,0,0,0-5.13,3.74,10.67,10.67,0,0,0-2,3,6.86,6.86,0,0,0-.41,4.35,6.69,6.69,0,0,0,2.51,3.65,9.63,9.63,0,0,0,3.36,1.6,18.82,18.82,0,0,0,6.39.52,40.7,40.7,0,0,0,5.85-.92c1.84-.38,3.69-.79,5.53-1.23,3.68-.88,7.37-1.88,11-3.1a68.87,68.87,0,0,0,10.8-4.56,39.57,39.57,0,0,0,4.58-2.9,16,16,0,0,1,1.82,1.22c.3.22.52.48.78.71l.39.35.31.38a6.39,6.39,0,0,1,.59.78l.51.85a11.44,11.44,0,0,1,.69,1.88,11,11,0,0,1-1.07,8l-.23.47-.3.43-.59.87-.69.8-.34.4-.4.36-.79.73c-.27.23-.58.42-.86.64a10.77,10.77,0,0,1-.89.61l-.17.09a25.89,25.89,0,0,0-7.61-3.49,37.51,37.51,0,0,0-4.78-1.08c-1.6-.27-3.22-.45-4.84-.56a61.59,61.59,0,0,0-9.79.1c-1.64.15-3.27.36-4.93.65a31.64,31.64,0,0,0-5,1.27,17.39,17.39,0,0,0-2.62,1.16,12.46,12.46,0,0,0-1.35.92,6.78,6.78,0,0,0-1.38,1.49,4.88,4.88,0,0,0-.55,4.56,5.92,5.92,0,0,0,1.26,1.94,7.62,7.62,0,0,0,1.45,1.15,8.94,8.94,0,0,0,1.59.75c.54.2,1,.29,1.47.43.91.19,1.81.35,2.68.45,1.74.22,3.45.32,5.16.37a96.3,96.3,0,0,0,20.52-1.74c1.73-.35,3.4-.71,5.17-1.21.94-.28,1.88-.6,2.81-1A9.2,9.2,0,0,1,95,144.6a11.75,11.75,0,0,1,.34,6.76l-.22.9-.11.44c0,.15-.1.25-.14.38l-.27.74-.37.72a4.42,4.42,0,0,1-.43.72c-.16.24-.31.48-.48.71a15.84,15.84,0,0,1-1.13,1.35,32.26,32.26,0,0,1-5.71,4.74,72.17,72.17,0,0,1-6.5,3.86c-4.46,2.36-9,4.41-13.46,6.3s-8.87,3.64-13.15,5.33l-7.47,2.92-1.93.76s-3.34,1.54-6.58,3.09-6.41,3.14-6.1,3.08c-2.6,1.42-4.64,2.8-4.89,3.46s1.28.59,5.83-.73c5.43-1.42,13-3.81,13-3.81l2-.76,2.25-.88,7.71-3c4.63-1.83,9.39-3.74,14.24-5.87A137.74,137.74,0,0,0,86,168.47a54.56,54.56,0,0,0,7.2-5A22.22,22.22,0,0,0,99.29,156a15.84,15.84,0,0,0,.83-2.46l.29-1.18.2-1.22a17.11,17.11,0,0,0,.06-5.11A14.62,14.62,0,0,0,99,140.92a15.82,15.82,0,0,0-1-1.45,18.51,18.51,0,0,0,7.28-9.69,17.29,17.29,0,0,0,.6-3,14.78,14.78,0,0,0-.55-6.22,14.6,14.6,0,0,0-3.17-5.56,19.89,19.89,0,0,0-2.76-2.31c.35-.38.68-.77,1-1.18a18.29,18.29,0,0,0,3.14-5.78,13.57,13.57,0,0,0,.43-6.94,15.55,15.55,0,0,0-2.89-6.17l-.26-.31c.25-.41.49-.84.71-1.28A15.07,15.07,0,0,0,103,84.27a9.88,9.88,0,0,0-.12-1.72c0-.28-.06-.58-.1-.85l-.17-.78a22.85,22.85,0,0,0-.87-3.13A16,16,0,0,0,98.18,72a9.18,9.18,0,0,0-1.25-1.17c-.46-.35-.89-.72-1.36-1a19.37,19.37,0,0,0-2.95-1.55,25.62,25.62,0,0,0-6.13-1.7,51,51,0,0,0-12-.18c-1,.1-2,.18-2.93.3l-2.89.41-2.8.41c-.91.14-1.81.27-2.71.35a42.91,42.91,0,0,1-10.63-.06,22.15,22.15,0,0,1-4.86-1.3,16,16,0,0,1-4.15-2.43A17.09,17.09,0,0,1,38.32,56c-2.14-6.51-2-14-2.84-21.45a85.53,85.53,0,0,0-1.87-11.2,39.67,39.67,0,0,0-4.29-10.84,12.84,12.84,0,0,0-.81-1.26L27.64,10c-.63-.78-1.29-1.55-2-2.29l-1.11-1a10.74,10.74,0,0,0-1.16-1l-1.21-.91-.62-.44L20.92,4a18.77,18.77,0,0,0-2.66-1.4,26.71,26.71,0,0,0-2.72-1.1A25.78,25.78,0,0,0,9.74.07,11.49,11.49,0,0,0,6.31.2,7.13,7.13,0,0,0,2.67,2.05a7.68,7.68,0,0,0-2,3.41A13.46,13.46,0,0,0,.16,8.7a35,35,0,0,0,.33,5.72C.72,16.23,1,18,1.28,19.7l.37,2.54c.12.85.2,1.64.3,2.53.2,1.73.39,3.46.59,5.17.38,3.43.72,6.82,1,10.21.57,6.77.94,13.49,1.22,20.13.13,3.32.24,6.63.32,9.9,0,1.62,0,3.24,0,4.85s0,3.22-.08,4.83C4.86,86.28,4.43,92.62,3.88,98.85ZM84.62,139a92.05,92.05,0,0,1-9.44,1.35,87.4,87.4,0,0,1-9.4.37c-1.54,0-3.08-.1-4.57-.25-.38,0-.73-.08-1.1-.13s-.73-.08-1.06-.16a11.21,11.21,0,0,1-1.83-.44,2.6,2.6,0,0,1-1-.62l-.05-.05.23-.21a5.78,5.78,0,0,1,1.39-.82,20.16,20.16,0,0,1,3.89-1.22c1.4-.3,2.84-.53,4.3-.7a53,53,0,0,1,17.06.66,34.31,34.31,0,0,1,3.89,1.13l.88.38-.84.2C86.18,138.69,85.4,138.84,84.62,139ZM80.23,98.64A56.83,56.83,0,0,1,58.6,99c-.88-.16-1.76-.37-2.63-.56s-1.74-.43-2.57-.73a24.7,24.7,0,0,1-4.76-2,8.34,8.34,0,0,1-1-.63,7.43,7.43,0,0,1-.93-.68,7.31,7.31,0,0,1-1.45-1.51c-.35-.5-.37-.81-.35-.8a.59.59,0,0,1,.09-.19,3.53,3.53,0,0,1,.48-.49,14.14,14.14,0,0,1,4.25-1.91,47.13,47.13,0,0,1,5.24-1.18,99.53,99.53,0,0,1,11-1.18C69.61,87,73.33,86.9,77,87c.92,0,1.83.07,2.72.13s1.79.15,2.56.27a24.72,24.72,0,0,1,4.87,1.43,27.5,27.5,0,0,1,6.62,3.77,21.33,21.33,0,0,1-3.57,2.51A36.44,36.44,0,0,1,80.23,98.64ZM65.42,122.28c-1.75.39-3.56.77-5.27,1.1a22.69,22.69,0,0,1-4.86.43,9.09,9.09,0,0,1-4-.91,2.06,2.06,0,0,1-.85-.8,1.14,1.14,0,0,1,0-.84,6.33,6.33,0,0,1,2.26-2.87A18.71,18.71,0,0,1,56.71,116a31.54,31.54,0,0,1,4.68-1.63c.79-.24,1.66-.39,2.49-.6s1.67-.39,2.51-.51a57.68,57.68,0,0,1,10.11-1,48.65,48.65,0,0,1,9.91.81c1.07.21,2.13.46,3.16.76a40.67,40.67,0,0,1-3.7,2A102,102,0,0,1,65.42,122.28Z"/>
  </g>
</svg>
