<svg xmlns="http://www.w3.org/2000/svg" width="134.54" height="185.76" viewBox="0 0 134.54 185.76">
  <defs>
    <style>
      .cls-1 {
        fill: #a7a8a8;
      }

      .cls-2 {
        opacity: 0.28;
      }
    </style>
  </defs>
  <g id="Layer_2" data-name="Layer 2">
    <path class="cls-1" d="M126.72,54.08c1.6-4.47,3.08-9,4.38-13.65a102.49,102.49,0,0,0,3.05-14.3,42.32,42.32,0,0,0,.34-7.6,23.45,23.45,0,0,0-.55-4,14.17,14.17,0,0,0-1.58-4.06A10.42,10.42,0,0,0,129.12,7a11.19,11.19,0,0,0-4.33-1.65,14.35,14.35,0,0,0-4.34-.1,13.3,13.3,0,0,0-4.28,1.28A16.93,16.93,0,0,0,110,12.31a38.8,38.8,0,0,0-3.6,6.85c-1.92,4.65-3.33,9.33-4.74,14q-1.06,3.47-2.11,6.94l-1.08,3.44c-.38,1.18-.74,2.35-1.09,3.53-1.4,4.7-2.66,9.4-4,14a123.63,123.63,0,0,1-4.61,13.53,30.45,30.45,0,0,1-3.19,5.88,9,9,0,0,1-2,2c-.17.13-.33.18-.48.29a3.67,3.67,0,0,1-.45.17,2.28,2.28,0,0,1-.86.1,4.62,4.62,0,0,1-2.09-.87,12.6,12.6,0,0,1-2.26-2.06,36.77,36.77,0,0,1-4-5.53A108.84,108.84,0,0,1,67,61.81c-3.84-8.87-7.3-18-10.33-27.18-1.53-4.6-2.93-9.24-4.31-13.92C51.68,18.37,51,16,50.24,13.65a49.16,49.16,0,0,0-2.78-7.22A14.21,14.21,0,0,0,44.9,2.78,9.28,9.28,0,0,0,40.56.33,13.85,13.85,0,0,0,36.08.07a18.92,18.92,0,0,0-4.2.83,14.62,14.62,0,0,0-4,2.16,13.65,13.65,0,0,0-3,3.39,19.72,19.72,0,0,0-2.6,7.92,39.12,39.12,0,0,0-.11,7.79,66.15,66.15,0,0,0,1,7.49A113.69,113.69,0,0,0,27.1,44,184.64,184.64,0,0,0,34,61.55a28.56,28.56,0,0,0-3.95,1.1,25,25,0,0,0-10.16,6.86,13.59,13.59,0,0,0-3.47-1.26,12.76,12.76,0,0,0-4.09-.14,12.61,12.61,0,0,0-7.15,3.56,16.55,16.55,0,0,0-3.95,6.44,24.41,24.41,0,0,0-1.22,7A56.36,56.36,0,0,0,1.1,98.26a89.82,89.82,0,0,0,3.3,12.36,162.28,162.28,0,0,0,9.84,22.69c3.71,7.19,7.76,14,12,20.58,1,1.64,2.11,3.26,3.19,4.87l.3.46.25.37c2.64,3.9,4.54,6.5,4.64,6.64a1.64,1.64,0,0,0,.42.21c1.73.46,2.72.05,3.27-.64a3.42,3.42,0,0,0,.63-2.3.41.41,0,0,0-.09-.34c-.1-.14-1.92-2.63-4.48-6.41l-2.14-3.21c-4.13-6.31-8.12-12.89-11.8-19.75-1.84-3.44-3.61-6.94-5.28-10.52s-3.19-7.23-4.58-11A95.64,95.64,0,0,1,7,100.87,62.16,62.16,0,0,1,5.26,89.09a26.59,26.59,0,0,1,0-3l.06-1.47c0-.49.09-.93.14-1.41A16.11,16.11,0,0,1,7,78.07c1.52-3.15,4.53-5.13,7.68-4.82a7.82,7.82,0,0,1,2.3.6,24,24,0,0,0-2,5,27.76,27.76,0,0,0-.88,7.43c0,.62,0,1.23.07,1.83s.08,1.22.16,1.82.13,1.18.25,1.82.24,1.25.39,1.85a33.06,33.06,0,0,0,2.57,6.88,17.67,17.67,0,0,0,1,1.71l.42.57a4,4,0,0,0,.49.6c.18.2.36.41.55.6l.61.5a4.43,4.43,0,0,0,2.75.93,4.16,4.16,0,0,0,2.64-1.1c.18-.18.35-.36.52-.55s.28-.45.43-.67a7.76,7.76,0,0,0,.4-.69l.3-.73.29-.72.14-.47c.09-.31.19-.63.25-.93A32.17,32.17,0,0,0,29,96a61.63,61.63,0,0,0,.48-7,32.78,32.78,0,0,0-.81-7.14A21.81,21.81,0,0,0,25.8,75,18.63,18.63,0,0,0,24,72.72a19.52,19.52,0,0,1,3.52-3,21.7,21.7,0,0,1,8.78-3.28c.71,1.47,1.44,2.94,2.18,4.39,2.23,4.3,4.59,8.53,7.21,12.64,1.32,2,2.7,4.07,4.26,6a32.6,32.6,0,0,0,2.59,2.91c.26.24.49.47.79.71l.43.36.51.36a7.54,7.54,0,0,0,1.18.64c.31.13.61.27.93.38a12.29,12.29,0,0,0,4.41.93,6,6,0,0,0,3-.78A5.37,5.37,0,0,0,66,92.45a7.61,7.61,0,0,0,.52-2.65,12.3,12.3,0,0,0-.16-2.24,20.9,20.9,0,0,0-1-3.89A38.8,38.8,0,0,0,62,76.89a46,46,0,0,0-4.35-6,37.6,37.6,0,0,0-5.39-5.23,22.18,22.18,0,0,0-6.9-3.8A21,21,0,0,0,39.53,61c-1.85-4-3.58-8.06-5.15-12.17A138.28,138.28,0,0,1,30,35.51a76,76,0,0,1-2.55-13.6,35.22,35.22,0,0,1,0-6.66,19,19,0,0,1,.61-3.09,15,15,0,0,1,.48-1.43,14.12,14.12,0,0,1,.65-1.29A9.65,9.65,0,0,1,30,8.29,8.44,8.44,0,0,1,31,7.34,7.19,7.19,0,0,1,33.27,6a3.43,3.43,0,0,1,.66-.23c.23-.06.46-.14.69-.19.5-.08,1-.2,1.49-.24a9.59,9.59,0,0,1,2.84,0,4.06,4.06,0,0,1,2,.92,7.83,7.83,0,0,1,1.62,2.1,37,37,0,0,1,2.48,6.22c1.44,4.48,2.74,9.16,4.16,13.79,2.82,9.28,6,18.47,9.65,27.48,1.8,4.5,3.7,9,5.83,13.43a71.77,71.77,0,0,0,7.67,12.9,26.81,26.81,0,0,0,2.73,3,13,13,0,0,0,3.74,2.47,8.4,8.4,0,0,0,2.52.63A7.14,7.14,0,0,0,84.07,88a9.47,9.47,0,0,0,4.14-2.58,24.59,24.59,0,0,0,4.42-6.72,71,71,0,0,0,2.82-6.93c3.23-9.28,5.37-18.62,8.27-27.59,1.46-4.58,2.79-9.17,4.19-13.67a80.06,80.06,0,0,1,4.94-12.82,18.69,18.69,0,0,1,3.64-5,8.13,8.13,0,0,1,4.83-2.21,10.27,10.27,0,0,1,2.77.11,6,6,0,0,1,2.25.9,7,7,0,0,1,2.53,4.32,23.35,23.35,0,0,1,.41,6.27,54.19,54.19,0,0,1-.79,6.63,117.06,117.06,0,0,1-3.26,13.26c-2.61,8.78-5.91,17.31-9.23,25.84s-6.66,17-9.62,25.62c-1.28,3.73-2.49,7.47-3.59,11.25-1-.12-1.9-.21-2.84-.25-.54,0-1.11,0-1.62,0H93.75l-6.06,0c-8,.08-16,.3-23.74.58s-15.41.64-22.9,1l-5.6.31-2.77.17-2.27.14-1.38.09c-.18.07-.56-.11-.56.2l-.2.64a26,26,0,0,0-.76,2.59c-.14.53-.15.68-.21.94s-.1.49-.14.74a26.92,26.92,0,0,0-.38,3,26.25,26.25,0,0,0,.17,6,20.76,20.76,0,0,0,1.73,5.86,18.69,18.69,0,0,0,3.5,5.06,19.77,19.77,0,0,0,4.81,3.6c.43.22.86.46,1.3.67l1.33.57.66.27L41,137l1.34.44A42,42,0,0,0,53,139c.88.06,1.76,0,2.64,0s1.76,0,2.57-.07l4.95-.27,9.71-.53,3.93-.22h0V139l0,1.19c0,.8,0,1.59.1,2.38.07,1.58.23,3.13.37,4.67s.35,3.06.6,4.56c.12.75.23,1.5.35,2.25l.42,2.21c.26,1.48.6,2.92.93,4.35.18.72.31,1.44.51,2.14l.3,1.09.09.32c0,.21.11.42.16.61l.3,1.08c.17.65.31,1.16.43,1.5l.17.53L82,169c.27.7.63,1.69,1.08,2.78A90.53,90.53,0,0,0,87.46,181c3.1,5.16,5.7,7.94,2.72-1-.41-1.6-.92-3.38-1.42-5.07s-.87-3.32-1.19-4.59c-.49-2-.79-3.26-.79-3.26s-.24-.7-.61-1.95c-.17-.63-.38-1.4-.61-2.28-.1-.34-.19-.69-.29-1-.39-1.44-.68-2.92-1-4.39s-.58-3-.86-4.5c-.49-3-.89-6.12-1.13-9.26,0-.78-.09-1.57-.13-2.36s0-1.57-.07-2.37v-1.45c0-.83.08-1.68.12-2.51l.07-1.27,0-.64c0-.2.07-.47,0-.59l-2.48.13-22,1.21c-.89.07-1.68,0-2.53.06H54l-1.26-.06c-.83,0-1.68-.05-2.51-.16s-1.68-.14-2.49-.3-1.65-.26-2.44-.48l-1.21-.29c-.39-.11-.78-.25-1.17-.37a22,22,0,0,1-2.26-.88c-.38-.15-.71-.36-1.07-.54a7.38,7.38,0,0,1-1-.6A13.43,13.43,0,0,1,32.84,123a20.43,20.43,0,0,1-.63-9.88c.07-.43.14-.85.24-1.27l0-.2h.22l5.75-.34,11.68-.6c7.85-.37,15.83-.69,23.94-.91s16.35-.36,24.64-.26c.9,0,1.78.06,2.66.15q-1.27,4.89-2.2,9.87c-.18,1.12-.37,2.24-.55,3.35l-.28,1.67-.19,1.69c-.23,2.25-.52,4.49-.55,6.77l-.12,3.39c.05,1.13.09,2.27.14,3.4a24.25,24.25,0,0,0,1,7.14c.11.32.25.66.38,1s.34.67.51,1a9.51,9.51,0,0,0,.73,1,6,6,0,0,0,1,1,5.45,5.45,0,0,0,1.37.74,5.67,5.67,0,0,0,1.55.3,6.07,6.07,0,0,0,2.67-.49,11.16,11.16,0,0,0,3.47-2.34,21.8,21.8,0,0,0,2.41-2.74,35.25,35.25,0,0,0,3.56-5.94,42.59,42.59,0,0,0,2.43-6.33,32.57,32.57,0,0,0,1.3-13.58,19.52,19.52,0,0,0-2.22-6.82A16.58,16.58,0,0,0,113,108.3a20,20,0,0,0-5.07-2.52c2.49-8.5,5.56-16.94,8.81-25.42C120,71.71,123.55,63,126.72,54.08ZM24.17,90.86a52,52,0,0,1-.65,6.2c-.08.51-.2,1-.3,1.44l-.19.66-.06.22v0l-.14-.2a17.89,17.89,0,0,1-1.33-2.55,28.06,28.06,0,0,1-1.77-5.78,25.17,25.17,0,0,1,.71-12c.18-.53.39-1,.62-1.56a13.57,13.57,0,0,1,1.23,2.05A24.28,24.28,0,0,1,24.17,90.86ZM43.45,66.73a9.92,9.92,0,0,1,1.33.45,19.42,19.42,0,0,1,5.1,3.25,39,39,0,0,1,8.17,10,29.63,29.63,0,0,1,2.66,5.81,12,12,0,0,1,.6,2.81,4.25,4.25,0,0,1,0,1.09c0,.29-.14.41-.13.38s0,0,0,0,0,0,0,0,0,0-.07,0a2.24,2.24,0,0,1-.81,0,10.55,10.55,0,0,1-2.64-.81.8.8,0,0,1-.24-.12.78.78,0,0,1-.16-.08,5.12,5.12,0,0,1-.45-.35,5,5,0,0,1-.52-.45c-.17-.16-.35-.35-.53-.53a30.41,30.41,0,0,1-2.08-2.47,102.25,102.25,0,0,1-7.42-11.56c-1.42-2.53-2.78-5.11-4.09-7.72A12.79,12.79,0,0,1,43.45,66.73Zm68,47.12a12.63,12.63,0,0,1,1.59,2.05,14.15,14.15,0,0,1,1.78,5.08,26.93,26.93,0,0,1-1.08,11.66,34.24,34.24,0,0,1-5.32,10.86,16,16,0,0,1-1.9,2.08,5.21,5.21,0,0,1-1.8,1.16.57.57,0,0,1-.31,0s0,0,0,0-.06,0-.12-.12a4.51,4.51,0,0,1-.85-1.82A16.8,16.8,0,0,1,103,142c-.09-1-.09-2.13-.15-3.19l-.07-1.6,0-.81,0-.81.12-3.24a107.23,107.23,0,0,1,3.65-21.55,13.48,13.48,0,0,1,3,1.42A11.84,11.84,0,0,1,111.49,113.85Z"/>
  </g>
</svg>
